<svg width="35" height="35" viewBox="0 0 35 35" fill="none" xmlns="http://www.w3.org/2000/svg">
<g clip-path="url(#clip0_279_478)">
<path fill-rule="evenodd" clip-rule="evenodd" d="M24.5628 9.54916C22.7559 7.82585 20.3445 6.88703 17.8496 6.92561C13.2841 6.92561 9.40667 10.0057 8.02415 14.1532C7.2911 16.3266 7.29109 18.6802 8.02414 20.8536H8.03056C9.4195 24.9947 13.2905 28.0748 17.856 28.0748C20.2127 28.0748 22.236 27.472 23.8041 26.4073V26.403C25.6496 25.1812 26.9099 23.2586 27.3021 21.0851H17.8496V14.3462H34.3562C34.5619 15.5165 34.6584 16.7126 34.6584 17.9022C34.6584 23.2248 32.7562 27.725 29.4464 30.7729L29.4498 30.7755C26.5498 33.4505 22.5694 35.0002 17.8496 35.0002C11.2328 35.0002 5.18194 31.2707 2.21116 25.3612C-0.270912 20.4164 -0.270906 14.5905 2.21117 9.64566C5.18196 3.72981 11.2328 0.000202742 17.8496 0.000202742C22.1965 -0.0512395 26.3954 1.58205 29.5591 4.55284L24.5628 9.54916Z" fill="white"/>
</g>
<defs>
<clipPath id="clip0_279_478">
<rect width="35" height="35" fill="white"/>
</clipPath>
</defs>
</svg>
