<svg width="35" height="35" viewBox="0 0 35 35" fill="none" xmlns="http://www.w3.org/2000/svg">
<path d="M31.4168 10.2195C31.4381 10.5341 31.4381 10.8487 31.4381 11.1663C31.4381 20.8415 24.2149 32 11.0069 32V31.9942C7.10522 32 3.28458 30.8604 0 28.7116C0.567337 28.7812 1.13752 28.816 1.70912 28.8174C4.94251 28.8204 8.08349 27.7141 10.6273 25.6769C7.55454 25.6175 4.86004 23.5746 3.91875 20.5921C4.99512 20.8038 6.10421 20.7603 7.16067 20.466C3.81068 19.7758 1.40057 16.7745 1.40057 13.2889C1.40057 13.257 1.40057 13.2266 1.40057 13.1961C2.39874 13.7631 3.51635 14.0777 4.65956 14.1125C1.50437 11.9623 0.53179 7.68214 2.43713 4.33575C6.08288 8.91021 11.4619 11.6911 17.2362 11.9855C16.6575 9.44232 17.4481 6.77739 19.3136 4.98966C22.2058 2.21743 26.7544 2.35952 29.4731 5.30718C31.0813 4.98386 32.6226 4.38214 34.0331 3.5296C33.4971 5.22454 32.3752 6.6643 30.8765 7.57919C32.2998 7.4081 33.6904 7.01953 35 6.42651C34.036 7.89962 32.8217 9.18279 31.4168 10.2195Z" fill="#7C644C"/>
</svg>
